<svg width="1891" height="982" viewBox="0 0 1891 982" fill="none" xmlns="http://www.w3.org/2000/svg">
<g filter="url(#filter0_i_1228_63)">
<path d="M507.353 583.427C504.007 587.419 501.611 592.01 498.002 595.846C489.648 604.725 479.874 612.692 469.995 619.791C451.659 632.969 428.125 636.216 406.446 631.209C378.159 624.676 346.11 615.32 323.047 596.994C294.133 574.019 274.173 540 280.522 502.51C287.034 464.055 304.456 421.619 333.957 395.508C350.586 380.791 368.865 368.767 388.87 359.145C400.444 353.578 412.822 350.1 425.089 355.485C438.487 361.367 452.951 368.311 464.832 376.87C477.691 386.133 487.95 398.121 497.32 410.755C503.552 419.157 510.9 426.677 517.226 435.007C524.939 445.163 527.829 456.485 528.279 469.1C528.552 476.746 525.113 482.541 521.848 489.228C516.313 500.564 509.727 510.875 502.591 521.26C493.682 534.228 484.32 548.422 471.361 557.752C460.779 565.372 447.44 569.666 434.76 572.21C423.535 574.462 413.56 574.16 403.306 568.634C392.899 563.026 382.96 556.904 372.439 551.484C359.55 544.843 348.375 533.991 340.325 522.047C333.14 511.387 332.721 501.532 334.993 489.185C336.514 480.922 337.644 472.452 342.566 465.432C350.71 453.818 361.755 444.27 372.092 434.688C380.849 426.571 391.504 416.093 404.448 416.681C417.918 417.293 431.343 424.739 441.742 432.882C451.356 440.41 461.287 453.002 463.245 465.381C464.964 476.245 457.658 487.476 449.947 494.319C442.572 500.865 428.907 510.551 419.683 502.507C415.004 498.427 411.372 493.6 408.181 488.347M1434.96 22.39C1439.91 20.7781 1444.38 18.1543 1449.47 16.814C1461.26 13.7113 1473.77 12.1343 1485.91 11.3488C1508.45 9.89061 1530.12 19.6077 1545.86 35.3426C1566.38 55.8726 1588.6 80.7908 1598.45 108.555C1610.8 143.361 1609.7 182.788 1584.45 211.217C1558.55 240.377 1521.28 267.133 1482.43 273.642C1460.53 277.311 1438.66 277.822 1416.59 275.38C1403.83 273.968 1391.49 270.358 1383.94 259.291C1375.69 247.202 1367.11 233.648 1361.57 220.094C1355.57 205.424 1353.22 189.821 1351.97 174.141C1351.14 163.714 1348.89 153.442 1347.94 143.026C1346.78 130.326 1350.33 119.193 1356.63 108.256C1360.45 101.627 1366.44 98.5355 1372.75 94.5948C1383.45 87.9148 1394.5 82.6604 1406.06 77.6343C1420.48 71.3588 1435.95 64.2829 1451.88 63.237C1464.89 62.3829 1478.48 65.8098 1490.58 70.3723C1501.29 74.4112 1509.59 79.9533 1515.36 90.0738C1521.21 100.344 1526.4 110.803 1532.45 120.975C1539.86 133.436 1543.59 148.562 1544.08 162.957C1544.53 175.804 1539.66 184.384 1531.19 193.651C1525.52 199.852 1520.08 206.437 1512.18 209.781C1499.12 215.314 1484.7 217.559 1470.85 220.207C1459.12 222.45 1444.54 225.689 1433.87 218.332C1422.77 210.674 1415.33 197.245 1410.83 184.829C1406.66 173.351 1404.91 157.409 1409.81 145.873C1414.11 135.749 1426.26 130.097 1436.43 128.38C1446.15 126.737 1462.87 125.764 1466.43 137.474C1468.24 143.413 1468.76 149.431 1468.68 155.577M821.68 147.763C821.587 142.555 820.383 137.518 820.591 132.256C821.071 120.073 823.22 107.648 826.018 95.8095C831.212 73.8345 846.842 55.9436 866.489 45.4991C892.123 31.8717 922.449 17.9062 951.878 16.6063C988.772 14.9767 1026.15 27.5553 1045.96 60.015C1066.27 93.3093 1080.96 136.767 1075.83 175.828C1072.93 197.845 1067.03 218.912 1058.24 239.298C1053.16 251.093 1046.1 261.839 1033.31 265.822C1019.34 270.173 1003.86 274.422 989.283 275.757C973.501 277.203 957.894 274.886 942.533 271.498C932.318 269.246 921.839 268.392 911.6 266.255C899.116 263.65 889.507 257.001 880.891 247.776C875.669 242.185 874.463 235.555 872.54 228.366C869.281 216.179 867.487 204.077 866.059 191.557C864.276 175.925 862.029 159.071 865.688 143.527C868.675 130.833 875.925 118.841 883.826 108.603C890.82 99.5392 898.547 93.2222 909.911 90.6654C921.444 88.0708 932.961 86.1694 944.458 83.3579C958.542 79.9135 974.096 80.7725 988.007 84.5048C1000.42 87.8359 1007.2 94.9994 1013.59 105.809C1017.86 113.042 1022.57 120.176 1023.46 128.703C1024.93 142.812 1022.86 157.264 1021.34 171.277C1020.06 183.148 1018.89 198.047 1008.74 206.095C998.169 214.47 983.152 217.659 969.962 218.336C957.768 218.962 942.012 215.974 932.412 207.916C923.988 200.844 922.134 187.575 923.464 177.352C924.736 167.573 928.695 151.298 940.934 151.316C947.142 151.326 953.049 152.586 958.903 154.457M451.751 263.339C446.827 265.037 442.409 267.738 437.34 269.167C425.606 272.475 413.124 274.27 401.001 275.268C378.497 277.119 356.652 267.782 340.648 252.324C319.766 232.155 297.113 207.629 286.783 180.04C273.832 145.455 274.243 106.015 298.994 77.1495C324.381 47.5416 361.171 20.1398 399.906 12.9533C421.739 8.90249 443.6 8.01075 465.703 10.0666C478.491 11.2562 490.893 14.65 498.634 25.5839C507.089 37.5268 515.911 50.9286 521.686 64.3838C527.938 78.9467 530.557 94.5065 532.083 110.162C533.097 120.573 535.523 130.804 536.655 141.203C538.035 153.881 534.681 165.074 528.57 176.119C524.866 182.814 518.934 186.009 512.691 190.059C502.108 196.925 491.153 202.372 479.687 207.599C465.372 214.125 450.037 221.47 434.123 222.793C421.128 223.874 407.483 220.685 395.304 216.335C384.523 212.483 376.128 207.087 370.184 197.068C364.153 186.902 358.785 176.535 352.559 166.47C344.931 154.14 340.942 139.082 340.192 124.698C339.524 111.86 344.241 103.196 352.548 93.7833C358.107 87.4841 363.437 80.8055 371.272 77.3239C384.235 71.5636 398.62 69.0672 412.415 66.1781C424.101 63.7309 438.631 60.2374 449.423 67.4081C460.654 74.8706 468.327 88.1677 473.047 100.503C477.411 111.907 479.438 127.816 474.741 139.436C470.619 149.633 458.571 155.497 448.438 157.391C438.745 159.203 422.044 160.468 418.279 148.822C416.37 142.915 415.742 136.907 415.713 130.761M308.139 729.869C312.068 726.45 315.153 722.29 319.318 719.066C328.958 711.604 339.858 705.264 350.725 699.797C370.897 689.651 394.649 690.125 415.279 698.461C442.195 709.339 472.386 723.594 492.299 745.303C517.262 772.518 531.655 809.24 519.52 845.276C507.072 882.238 483.226 921.427 450.004 942.601C431.277 954.536 411.342 963.552 390.079 969.926C377.776 973.614 365.006 975.113 353.733 967.875C341.42 959.969 328.22 950.848 317.825 940.536C306.573 929.375 298.316 915.93 291.037 901.985C286.196 892.712 280.115 884.135 275.17 874.918C269.141 863.68 268.058 852.046 269.586 839.516C270.512 831.921 274.816 826.736 279.087 820.642C286.327 810.312 294.445 801.158 303.117 792.016C313.946 780.602 325.413 768.048 339.672 760.859C351.316 754.988 365.162 752.834 378.084 752.305C389.522 751.837 399.328 753.696 408.591 760.758C417.992 767.925 426.852 775.526 436.395 782.525C448.087 791.1 457.427 803.568 463.509 816.624C468.938 828.276 467.81 838.076 463.634 849.916C460.84 857.839 458.399 866.028 452.439 872.191C442.578 882.388 430.176 890.091 418.467 897.938C408.549 904.584 396.385 913.267 383.693 910.661C370.484 907.949 358.389 898.495 349.392 888.826C341.074 879.887 333.235 865.895 333.238 853.362C333.24 842.363 342.213 832.414 350.899 826.861C359.208 821.55 374.219 814.121 382.072 823.508C386.055 828.27 388.887 833.606 391.216 839.294M161.695 757.932C156.566 758.839 151.779 760.816 146.549 761.434C134.442 762.866 121.834 762.686 109.703 761.775C87.1868 760.083 67.0714 747.443 53.6822 729.672C36.2128 706.485 17.6755 678.716 11.7879 649.852C4.4069 613.667 10.9826 574.776 39.944 550.138C69.65 524.866 110.273 503.557 149.656 502.519C171.854 501.933 193.585 504.472 215.094 509.961C227.539 513.136 239.257 518.428 245.192 530.438C251.675 543.557 258.292 558.174 261.892 572.367C265.788 587.728 265.941 603.507 264.999 619.208C264.372 629.65 265.168 640.134 264.659 650.582C264.039 663.319 258.975 673.85 251.212 683.803C246.507 689.836 240.147 692.064 233.347 695.088C221.821 700.214 210.149 703.879 198.007 707.248C182.846 711.455 166.551 716.31 150.627 715.128C137.622 714.163 124.644 708.878 113.296 702.676C103.25 697.186 95.8019 690.542 91.4988 679.717C87.132 668.732 83.4524 657.654 78.8771 646.739C73.272 633.367 71.6872 617.87 73.1973 603.546C74.5451 590.762 80.5594 582.943 90.2366 574.945C96.7126 569.593 103.022 563.83 111.305 561.617C125.009 557.956 139.607 557.74 153.685 557.045C165.61 556.456 180.508 555.279 190.045 564.049C199.971 573.177 205.469 587.511 208.201 600.433C210.727 612.379 210.24 628.409 203.783 639.151C198.117 648.578 185.301 652.485 174.996 652.77C165.139 653.044 148.445 651.68 146.549 639.589C145.587 633.456 145.907 627.423 146.84 621.348M106.379 427.592C101.348 426.247 96.1739 426.015 91.1723 424.365C79.5947 420.546 68.2435 415.055 57.6348 409.102C37.9431 398.052 25.054 378.096 20.4296 356.331C14.396 327.933 9.33072 294.932 16.1931 266.284C24.7959 230.369 47.1909 197.902 83.8513 187.812C121.454 177.462 167.277 175.318 203.408 191.021C223.774 199.872 242.397 211.358 259.571 225.422C269.508 233.559 277.891 243.308 278.195 256.701C278.526 271.331 278.346 287.374 275.61 301.759C272.65 317.328 266.12 331.693 258.63 345.525C253.65 354.723 249.94 364.561 245.064 373.815C239.119 385.097 230.079 392.501 218.837 398.241C212.023 401.72 205.317 401.052 197.877 400.918C185.264 400.693 173.136 399.082 160.708 397.003C145.191 394.409 128.37 391.922 114.437 384.121C103.059 377.75 93.5303 367.476 85.8663 357.058C79.0819 347.837 75.1395 338.668 75.8143 327.039C76.499 315.238 77.846 303.642 78.3122 291.816C78.8833 277.328 83.9963 262.613 91.4184 250.269C98.0426 239.253 106.798 234.708 118.948 231.549C127.079 229.436 135.233 226.88 143.675 228.375C157.643 230.848 170.964 236.822 184.017 242.142C195.073 246.647 209.073 251.877 214.01 263.856C219.148 276.324 218.074 291.638 215.089 304.504C212.33 316.399 205.114 330.721 194.723 337.728C185.603 343.877 172.337 342.001 162.877 337.905C153.827 333.986 139.274 325.696 142.665 313.936C144.386 307.971 147.225 302.639 150.638 297.527M1350.74 479.708C1351.73 474.595 1351.6 469.417 1352.9 464.313C1355.9 452.497 1360.59 440.79 1365.78 429.792C1375.43 409.377 1394.44 395.127 1415.83 388.995C1443.74 380.995 1476.3 373.64 1505.36 378.487C1541.79 384.564 1575.74 404.64 1588.36 440.508C1601.31 477.298 1606.64 522.861 1593.5 560C1586.09 580.935 1575.93 600.313 1563.1 618.427C1555.68 628.908 1546.54 637.951 1533.2 639.188C1518.63 640.539 1502.61 641.478 1488.07 639.753C1472.33 637.885 1457.55 632.374 1443.23 625.867C1433.7 621.54 1423.63 618.525 1414.06 614.306C1402.39 609.162 1394.37 600.661 1387.86 589.847C1383.92 583.292 1384.12 576.556 1383.73 569.124C1383.08 556.526 1383.84 544.315 1385.04 531.772C1386.55 516.111 1387.86 499.158 1394.67 484.714C1400.23 472.919 1409.81 462.697 1419.67 454.325C1428.4 446.913 1437.27 442.341 1448.91 442.203C1460.73 442.063 1472.4 442.597 1484.22 442.238C1498.72 441.797 1513.75 445.871 1526.58 452.414C1538.04 458.254 1543.18 466.671 1547.18 478.571C1549.85 486.535 1552.97 494.491 1552.07 503.017C1550.58 517.123 1545.55 530.83 1541.15 544.222C1537.43 555.566 1533.19 569.896 1521.58 575.657C1509.5 581.653 1494.15 581.649 1481.11 579.569C1469.05 577.646 1454.26 571.447 1446.55 561.569C1439.78 552.901 1440.72 539.536 1444.15 529.813C1447.43 520.512 1454.68 505.416 1466.65 507.978C1472.72 509.278 1478.24 511.739 1483.57 514.787M1333.05 645.758C1332.41 650.928 1332.9 656.084 1331.97 661.267C1329.8 673.263 1325.94 685.268 1321.52 696.603C1313.32 717.641 1295.35 733.182 1274.44 740.791C1247.16 750.718 1215.19 760.327 1185.86 757.518C1149.1 753.997 1113.83 736.338 1098.74 701.438C1083.26 665.641 1074.76 620.562 1085.28 582.596C1091.21 561.196 1099.99 541.156 1111.53 522.191C1118.2 511.218 1126.69 501.559 1139.91 499.395C1154.35 497.031 1170.26 494.976 1184.89 495.683C1200.72 496.448 1215.85 500.915 1230.59 506.407C1240.39 510.06 1250.65 512.364 1260.49 515.905C1272.49 520.222 1281.08 528.144 1288.33 538.478C1292.72 544.741 1292.99 551.475 1293.9 558.861C1295.43 571.383 1295.52 583.617 1295.19 596.214C1294.78 611.942 1294.66 628.945 1288.88 643.828C1284.15 655.983 1275.3 666.849 1266.05 675.888C1257.87 683.89 1249.34 689.07 1237.73 690.021C1225.95 690.985 1214.28 691.265 1202.5 692.449C1188.07 693.9 1172.79 690.884 1159.53 685.252C1147.7 680.226 1141.98 672.188 1137.17 660.595C1133.94 652.837 1130.28 645.118 1130.58 636.55C1131.09 622.374 1135.15 608.35 1138.6 594.685C1141.52 583.108 1144.75 568.517 1155.93 561.96C1167.56 555.137 1182.87 554.07 1196.03 555.235C1208.19 556.312 1223.38 561.464 1231.76 570.78C1239.12 578.955 1239.11 592.353 1236.37 602.291C1233.75 611.798 1227.56 627.364 1215.45 625.642C1209.3 624.769 1203.63 622.699 1198.09 620.031M1230.36 429.013C1225.24 429.92 1220.45 431.897 1215.22 432.515C1203.11 433.947 1190.5 433.767 1178.37 432.856C1155.86 431.163 1135.74 418.524 1122.35 400.752C1104.88 377.565 1086.34 349.797 1080.46 320.933C1073.08 284.747 1079.65 245.857 1108.61 221.219C1138.32 195.947 1178.94 174.638 1218.33 173.599C1240.52 173.014 1262.25 175.553 1283.76 181.041C1296.21 184.217 1307.93 189.509 1313.86 201.519C1320.34 214.638 1326.96 229.255 1330.56 243.448C1334.46 258.809 1334.61 274.587 1333.67 290.289C1333.04 300.731 1333.84 311.215 1333.33 321.662C1332.71 334.4 1327.64 344.931 1319.88 354.884C1315.18 360.917 1308.82 363.145 1302.02 366.169C1290.49 371.294 1278.82 374.96 1266.68 378.329C1251.52 382.536 1235.22 387.391 1219.3 386.209C1206.29 385.244 1193.31 379.959 1181.96 373.757C1171.92 368.266 1164.47 361.623 1160.17 350.798C1155.8 339.813 1152.12 328.735 1147.55 317.82C1141.94 304.448 1140.36 288.951 1141.87 274.627C1143.21 261.842 1149.23 254.023 1158.91 246.026C1165.38 240.674 1171.69 234.911 1179.97 232.698C1193.68 229.036 1208.28 228.821 1222.35 228.126C1234.28 227.537 1249.18 226.359 1258.71 235.13C1268.64 244.258 1274.14 258.591 1276.87 271.514C1279.4 283.46 1278.91 299.49 1272.45 310.232C1266.79 319.659 1253.97 323.565 1243.67 323.851C1233.81 324.124 1217.11 322.761 1215.22 310.669C1214.26 304.536 1214.58 298.504 1215.51 292.429M1031.55 403.875C1035.48 407.291 1040.03 409.767 1043.8 413.442C1052.53 421.95 1060.33 431.862 1067.25 441.863C1080.11 460.427 1082.94 484.014 1077.56 505.603C1070.53 533.772 1060.62 565.654 1041.89 588.394C1018.42 616.903 984.058 636.267 946.685 629.264C908.351 622.082 866.225 603.922 840.634 573.969C826.209 557.085 814.507 538.599 805.236 518.429C799.872 506.759 796.61 494.322 802.208 482.151C808.324 468.857 815.519 454.516 824.283 442.786C833.769 430.091 845.934 420.042 858.73 410.893C867.239 404.809 874.886 397.593 883.325 391.414C893.614 383.879 904.984 381.187 917.605 380.957C925.254 380.817 930.988 384.357 937.617 387.739C948.854 393.471 959.048 400.236 969.308 407.552C982.117 416.686 996.146 426.295 1005.25 439.415C1012.68 450.129 1016.74 463.54 1019.06 476.263C1021.12 487.526 1020.64 497.495 1014.94 507.651C1009.15 517.958 1002.86 527.789 997.255 538.214C990.39 550.986 979.344 561.97 967.262 569.811C956.479 576.809 946.618 577.055 934.313 574.567C926.078 572.903 917.629 571.626 910.696 566.581C899.227 558.235 889.872 547.026 880.473 536.523C872.51 527.626 862.22 516.788 863.034 503.857C863.881 490.399 871.56 477.106 879.883 466.85C887.577 457.369 900.341 447.659 912.752 445.917C923.644 444.388 934.745 451.89 941.452 459.718C947.868 467.207 957.314 481.039 949.111 490.122C944.95 494.729 940.06 498.277 934.752 501.375M698.635 177.272C703.764 178.174 708.939 177.953 714.065 179.161C725.931 181.957 737.718 186.438 748.805 191.443C769.385 200.735 783.964 219.492 790.468 240.771C798.953 268.535 806.876 300.969 802.536 330.106C797.096 366.634 777.616 400.93 741.975 414.176C705.417 427.764 659.955 433.894 622.593 421.4C601.533 414.357 581.981 404.539 563.646 392.025C553.037 384.784 543.836 375.804 542.367 362.488C540.762 347.943 539.543 331.944 541.014 317.376C542.607 301.608 547.859 286.729 554.115 272.297C558.276 262.699 561.114 252.575 565.165 242.932C570.104 231.174 578.464 223.011 589.163 216.313C595.648 212.253 602.386 212.335 609.81 211.819C622.394 210.945 634.616 211.492 647.178 212.48C662.863 213.712 679.836 214.723 694.396 221.28C706.286 226.635 716.674 236.04 725.217 245.749C732.779 254.345 737.506 263.135 737.847 274.778C738.193 286.595 737.862 298.263 738.428 310.085C739.122 324.568 735.311 339.672 728.993 352.616C723.354 364.168 715.028 369.459 703.199 373.664C695.283 376.479 687.384 379.735 678.843 378.982C664.713 377.736 650.922 372.945 637.455 368.784C626.048 365.258 611.646 361.269 605.684 349.765C599.478 337.794 599.214 322.444 601.066 309.366C602.778 297.277 608.718 282.38 618.46 274.494C627.008 267.574 640.388 268.286 650.169 271.542C659.525 274.657 674.746 281.648 672.392 293.659C671.198 299.751 668.834 305.31 665.88 310.699M585.166 544.138C588.783 540.389 591.493 535.977 595.361 532.402C604.314 524.127 614.62 516.861 624.97 510.469C644.18 498.603 667.883 497.004 689.161 503.512C716.923 512.002 748.241 523.571 769.97 543.462C797.21 568.398 814.749 603.726 805.801 640.682C796.622 678.589 776.282 719.706 745.031 743.695C727.417 757.217 708.343 767.936 687.716 776.139C675.782 780.885 663.191 783.492 651.33 777.264C638.375 770.461 624.43 762.525 613.175 753.159C600.994 743.021 591.596 730.347 583.13 717.09C577.5 708.274 570.694 700.26 564.964 691.508C557.979 680.839 555.886 669.343 556.316 656.727C556.577 649.081 560.412 643.54 564.136 637.097C570.448 626.175 577.737 616.349 585.58 606.486C595.373 594.172 605.702 580.665 619.28 572.261C630.368 565.398 643.974 562.045 656.8 560.392C668.155 558.929 678.085 559.926 687.929 566.154C697.918 572.474 707.407 579.274 717.524 585.415C729.918 592.939 740.309 604.545 747.506 617.021C753.93 628.155 753.66 638.016 750.532 650.175C748.439 658.311 746.721 666.682 741.321 673.341C732.387 684.359 720.703 693.114 709.722 701.951C700.421 709.437 689.06 719.146 676.19 717.657C662.795 716.106 649.922 707.742 640.116 698.894C631.051 690.714 622.022 677.459 620.932 664.974C619.976 654.016 628.048 643.322 636.216 637.034C644.031 631.019 658.338 622.31 666.979 630.977C671.362 635.374 674.648 640.442 677.464 645.905M1673.16 416.441C1668.61 413.918 1663.64 412.442 1659.19 409.631C1648.88 403.124 1639.19 395.05 1630.34 386.707C1613.91 371.222 1606.23 348.74 1607.01 326.503C1608.02 297.489 1611.09 264.243 1624.68 238.106C1641.72 205.339 1671.3 179.254 1709.31 178.333C1748.3 177.388 1793.28 186.393 1824.54 210.371C1842.16 223.886 1857.45 239.536 1870.71 257.337C1878.39 267.637 1884.16 279.124 1881.22 292.193C1878 306.468 1873.94 321.991 1867.81 335.287C1861.17 349.677 1851.36 362.036 1840.75 373.645C1833.69 381.365 1827.71 390.014 1820.74 397.813C1812.24 407.321 1801.68 412.319 1789.38 415.168C1781.93 416.895 1775.58 414.625 1768.4 412.695C1756.21 409.425 1744.84 404.928 1733.28 399.904C1718.85 393.633 1703.13 387.151 1691.5 376.21C1682 367.276 1675.24 355.002 1670.32 343.04C1665.97 332.451 1664.36 322.601 1667.83 311.48C1671.35 300.195 1675.46 289.27 1678.78 277.908C1682.84 263.988 1691.36 250.947 1701.54 240.766C1710.64 231.679 1720.23 229.387 1732.79 229.262C1741.19 229.178 1749.72 228.671 1757.55 232.164C1770.5 237.943 1781.98 246.962 1793.36 255.282C1803 262.328 1815.32 270.789 1817.21 283.608C1819.18 296.947 1814.43 311.547 1808.42 323.309C1802.87 334.183 1792.4 346.334 1780.62 350.618C1770.29 354.378 1757.87 349.349 1749.68 343.086C1741.85 337.095 1729.73 325.529 1735.87 314.939C1738.98 309.567 1743.02 305.081 1747.57 300.947M1823.55 722.806C1819.81 726.426 1816.95 730.742 1812.95 734.179C1803.72 742.136 1793.17 749.038 1782.6 755.066C1762.99 766.254 1739.24 767.024 1718.2 759.778C1690.76 750.324 1659.86 737.669 1638.84 717.032C1612.48 691.161 1596.19 655.242 1606.42 618.621C1616.92 581.057 1638.68 540.675 1670.75 517.791C1688.83 504.892 1708.26 494.845 1729.16 487.367C1741.26 483.04 1753.93 480.875 1765.57 487.513C1778.28 494.764 1791.93 503.181 1802.86 512.935C1814.68 523.491 1823.63 536.486 1831.62 550.031C1836.94 559.038 1843.47 567.285 1848.89 576.23C1855.49 587.137 1857.19 598.699 1856.31 611.292C1855.79 618.925 1851.76 624.328 1847.81 630.638C1841.13 641.333 1833.5 650.899 1825.32 660.482C1815.1 672.447 1804.3 685.584 1790.44 693.509C1779.12 699.981 1765.41 702.858 1752.53 704.062C1741.13 705.128 1731.24 703.785 1721.62 697.217C1711.86 690.552 1702.61 683.425 1692.72 676.935C1680.59 668.983 1670.61 657.022 1663.86 644.302C1657.82 632.95 1658.44 623.104 1661.99 611.063C1664.36 603.004 1666.37 594.698 1672 588.232C1681.32 577.533 1693.3 569.191 1704.58 560.742C1714.14 553.586 1725.83 544.278 1738.64 546.216C1751.97 548.233 1764.55 557.042 1774.04 566.227C1782.81 574.718 1791.37 588.28 1792.03 600.796C1792.6 611.78 1784.16 622.186 1775.78 628.185C1767.76 633.924 1753.15 642.128 1744.82 633.165C1740.59 628.618 1737.49 623.438 1734.86 617.88M1364.87 886.856C1362.42 882.258 1359.06 878.316 1356.86 873.533C1351.75 862.461 1348.03 850.414 1345.15 838.595C1339.8 816.657 1345.6 793.62 1358.37 775.394C1375.02 751.614 1395.7 725.403 1421.33 710.884C1453.46 692.682 1492.48 686.919 1524.86 706.849C1558.08 727.293 1590.9 759.344 1604.05 796.478C1611.47 817.41 1615.77 838.863 1617.2 861.015C1618.02 873.833 1616.61 886.612 1607.02 895.969C1596.55 906.188 1584.69 916.998 1572.31 924.808C1558.9 933.26 1543.94 938.282 1528.72 942.237C1518.6 944.868 1508.87 948.864 1498.78 951.609C1486.47 954.955 1474.89 953.394 1463.03 949.086C1455.84 946.475 1451.75 941.115 1446.78 935.583C1438.34 926.204 1431.25 916.235 1424.29 905.729C1415.6 892.61 1405.95 878.612 1402.15 863.102C1399.05 850.435 1400.07 836.459 1402.46 823.749C1404.58 812.498 1408.59 803.362 1417.56 795.924C1426.66 788.376 1436.06 781.453 1445.02 773.729C1456.01 764.266 1470.26 757.97 1484.35 754.98C1496.92 752.311 1506.22 755.615 1516.81 762.347C1523.9 766.852 1531.33 771.073 1536 778.267C1543.71 790.168 1548.43 803.986 1553.44 817.16C1557.69 828.319 1563.41 842.125 1558.02 853.906C1552.4 866.166 1540.47 875.825 1529.03 882.416C1518.44 888.51 1503.05 893.001 1490.84 890.18C1480.12 887.703 1472.45 876.722 1468.99 867.009C1465.68 857.718 1461.82 841.42 1472.73 835.88C1478.27 833.07 1484.11 831.511 1490.17 830.521M959.635 950.296C954.506 951.203 949.719 953.18 944.489 953.799C932.382 955.23 919.773 955.051 907.643 954.139C885.127 952.447 865.011 939.807 851.622 922.036C834.153 898.849 815.615 871.081 809.728 842.216C802.347 806.031 808.922 767.141 837.884 742.502C867.59 717.23 908.213 695.921 947.596 694.883C969.794 694.298 991.525 696.837 1013.03 702.325C1025.48 705.5 1037.2 710.792 1043.13 722.803C1049.62 735.921 1056.23 750.538 1059.83 764.731C1063.73 780.093 1063.88 795.871 1062.94 811.572C1062.31 822.014 1063.11 832.498 1062.6 842.946C1061.98 855.684 1056.92 866.215 1049.15 876.168C1044.45 882.2 1038.09 884.429 1031.29 887.452C1019.76 892.578 1008.09 896.244 995.946 899.613C980.786 903.819 964.491 908.674 948.567 907.492C935.562 906.527 922.584 901.243 911.235 895.04C901.189 889.55 893.742 882.907 889.439 872.082C885.072 861.097 881.392 850.018 876.817 839.103C871.212 825.731 869.627 810.234 871.137 795.91C872.485 783.126 878.499 775.307 888.176 767.309C894.652 761.957 900.962 756.195 909.245 753.982C922.949 750.32 937.547 750.105 951.625 749.409C963.55 748.82 978.448 747.643 987.985 756.414C997.91 765.541 1003.41 779.875 1006.14 792.797C1008.67 804.743 1008.18 820.773 1001.72 831.515C996.057 840.942 983.241 844.849 972.936 845.135C963.078 845.408 946.385 844.044 944.489 831.953C943.527 825.82 943.847 819.788 944.78 813.713" stroke="url(#paint0_linear_1228_63)" stroke-opacity="0.5" stroke-width="17" stroke-linecap="round"/>
</g>
<defs>
<filter id="filter0_i_1228_63" x="-1.49023" y="-1.5" width="1892" height="983" filterUnits="userSpaceOnUse" color-interpolation-filters="sRGB">
<feFlood flood-opacity="0" result="BackgroundImageFix"/>
<feBlend mode="normal" in="SourceGraphic" in2="BackgroundImageFix" result="shape"/>
<feColorMatrix in="SourceAlpha" type="matrix" values="0 0 0 0 0 0 0 0 0 0 0 0 0 0 0 0 0 0 127 0" result="hardAlpha"/>
<feOffset dx="-2" dy="-2"/>
<feGaussianBlur stdDeviation="2.5"/>
<feComposite in2="hardAlpha" operator="arithmetic" k2="-1" k3="1"/>
<feColorMatrix type="matrix" values="0 0 0 0 0 0 0 0 0 0 0 0 0 0 0 0 0 0 1 0"/>
<feBlend mode="normal" in2="shape" result="effect1_innerShadow_1228_63"/>
</filter>
<linearGradient id="paint0_linear_1228_63" x1="945.5" y1="9" x2="945.5" y2="973" gradientUnits="userSpaceOnUse">
<stop stop-color="white" stop-opacity="0.46"/>
<stop offset="1" stop-opacity="0"/>
</linearGradient>
</defs>
</svg>
