<svg width="1891" height="982" viewBox="0 0 1891 982" fill="none" xmlns="http://www.w3.org/2000/svg">
<g filter="url(#filter0_i_1228_72)">
<path d="M1383.65 398.573C1386.99 394.581 1389.39 389.99 1393 386.154C1401.35 377.275 1411.13 369.308 1421 362.209C1439.34 349.031 1462.87 345.784 1484.55 350.791C1512.84 357.324 1544.89 366.68 1567.95 385.006C1596.87 407.981 1616.83 442 1610.48 479.49C1603.97 517.945 1586.54 560.381 1557.04 586.492C1540.41 601.209 1522.13 613.233 1502.13 622.855C1490.56 628.422 1478.18 631.9 1465.91 626.515C1452.51 620.633 1438.05 613.689 1426.17 605.13C1413.31 595.867 1403.05 583.879 1393.68 571.245C1387.45 562.843 1380.1 555.323 1373.77 546.993C1366.06 536.837 1363.17 525.515 1362.72 512.9C1362.45 505.254 1365.89 499.459 1369.15 492.772C1374.69 481.436 1381.27 471.125 1388.41 460.74C1397.32 447.772 1406.68 433.578 1419.64 424.248C1430.22 416.628 1443.56 412.334 1456.24 409.79C1467.46 407.538 1477.44 407.84 1487.69 413.366C1498.1 418.974 1508.04 425.096 1518.56 430.516C1531.45 437.157 1542.63 448.009 1550.68 459.953C1557.86 470.613 1558.28 480.468 1556.01 492.815C1554.49 501.078 1553.36 509.548 1548.43 516.568C1540.29 528.182 1529.24 537.73 1518.91 547.312C1510.15 555.429 1499.5 565.907 1486.55 565.319C1473.08 564.707 1459.66 557.261 1449.26 549.118C1439.64 541.59 1429.71 528.998 1427.75 516.619C1426.04 505.755 1433.34 494.524 1441.05 487.681C1448.43 481.135 1462.09 471.449 1471.32 479.493C1476 483.573 1479.63 488.4 1482.82 493.653M456.038 959.61C451.085 961.222 446.62 963.846 441.527 965.186C429.737 968.289 417.226 969.866 405.087 970.651C382.554 972.109 360.875 962.392 345.143 946.657C324.617 926.127 302.396 901.209 292.548 873.445C280.203 838.639 281.303 799.212 306.553 770.783C332.453 741.623 369.715 714.867 408.57 708.358C430.471 704.689 452.344 704.178 474.408 706.62C487.173 708.032 499.514 711.642 507.062 722.709C515.308 734.798 523.894 748.352 529.435 761.906C535.431 776.576 537.778 792.179 539.03 807.859C539.863 818.286 542.11 828.558 543.06 838.974C544.219 851.674 540.67 862.807 534.367 873.744C530.547 880.373 524.56 883.464 518.247 887.405C507.546 894.085 496.497 899.34 484.943 904.366C470.515 910.641 455.054 917.717 439.12 918.763C426.108 919.617 412.521 916.19 400.42 911.628C389.707 907.589 381.407 902.047 375.64 891.926C369.787 881.656 364.601 871.197 358.551 861.025C351.14 848.564 347.414 833.438 346.916 819.043C346.471 806.196 351.339 797.616 359.809 788.349C365.477 782.148 370.923 775.563 378.817 772.219C391.878 766.686 406.305 764.441 420.149 761.793C431.875 759.55 446.465 756.311 457.13 763.668C468.229 771.326 475.668 784.755 480.172 797.171C484.336 808.649 486.085 824.591 481.186 836.127C476.887 846.251 464.739 851.903 454.574 853.62C444.851 855.263 428.13 856.236 424.569 844.526C422.763 838.587 422.241 832.569 422.319 826.423M1069.32 834.237C1069.41 839.445 1070.62 844.482 1070.41 849.744C1069.93 861.927 1067.78 874.352 1064.98 886.191C1059.79 908.165 1044.16 926.056 1024.51 936.501C998.877 950.128 968.551 964.094 939.122 965.394C902.228 967.023 864.846 954.445 845.042 921.985C824.729 888.691 810.037 845.233 815.173 806.172C818.067 784.155 823.974 763.088 832.76 742.702C837.843 730.907 844.903 720.161 857.693 716.178C871.664 711.827 887.136 707.578 901.717 706.243C917.499 704.797 933.106 707.114 948.467 710.502C958.682 712.754 969.161 713.608 979.4 715.745C991.884 718.35 1001.49 724.999 1010.11 734.224C1015.33 739.815 1016.54 746.445 1018.46 753.634C1021.72 765.821 1023.51 777.923 1024.94 790.443C1026.72 806.075 1028.97 822.929 1025.31 838.473C1022.32 851.167 1015.07 863.159 1007.17 873.397C1000.18 882.461 992.453 888.778 981.089 891.335C969.556 893.929 958.039 895.831 946.542 898.642C932.458 902.087 916.904 901.228 902.993 897.495C890.578 894.164 883.796 887.001 877.411 876.191C873.138 868.958 868.433 861.824 867.543 853.297C866.07 839.188 868.142 824.736 869.657 810.723C870.941 798.852 872.108 783.953 882.263 775.905C892.831 767.53 907.848 764.341 921.038 763.664C933.232 763.038 948.988 766.026 958.588 774.084C967.012 781.156 968.866 794.425 967.536 804.648C966.264 814.427 962.305 830.702 950.066 830.684C943.858 830.674 937.951 829.414 932.097 827.543M1439.25 718.661C1444.17 716.963 1448.59 714.262 1453.66 712.833C1465.39 709.525 1477.88 707.73 1490 706.732C1512.5 704.881 1534.35 714.218 1550.35 729.676C1571.23 749.845 1593.89 774.371 1604.22 801.96C1617.17 836.545 1616.76 875.985 1592.01 904.85C1566.62 934.458 1529.83 961.86 1491.09 969.047C1469.26 973.098 1447.4 973.989 1425.3 971.933C1412.51 970.744 1400.11 967.35 1392.37 956.416C1383.91 944.473 1375.09 931.071 1369.31 917.616C1363.06 903.053 1360.44 887.494 1358.92 871.838C1357.9 861.427 1355.48 851.196 1354.35 840.797C1352.97 828.119 1356.32 816.926 1362.43 805.881C1366.13 799.186 1372.07 795.991 1378.31 791.941C1388.89 785.075 1399.85 779.628 1411.31 774.401C1425.63 767.875 1440.96 760.53 1456.88 759.207C1469.87 758.126 1483.52 761.315 1495.7 765.665C1506.48 769.517 1514.87 774.913 1520.82 784.932C1526.85 795.098 1532.21 805.465 1538.44 815.53C1546.07 827.86 1550.06 842.918 1550.81 857.302C1551.48 870.14 1546.76 878.804 1538.45 888.217C1532.89 894.516 1527.56 901.194 1519.73 904.676C1506.77 910.436 1492.38 912.933 1478.59 915.822C1466.9 918.269 1452.37 921.763 1441.58 914.592C1430.35 907.129 1422.67 893.832 1417.95 881.497C1413.59 870.093 1411.56 854.184 1416.26 842.564C1420.38 832.367 1432.43 826.503 1442.56 824.609C1452.26 822.797 1468.96 821.532 1472.72 833.178C1474.63 839.085 1475.26 845.093 1475.29 851.239M1582.86 252.131C1578.93 255.55 1575.85 259.71 1571.68 262.934C1562.04 270.396 1551.14 276.736 1540.27 282.203C1520.1 292.349 1496.35 291.875 1475.72 283.539C1448.81 272.661 1418.61 258.406 1398.7 236.697C1373.74 209.482 1359.35 172.76 1371.48 136.724C1383.93 99.7617 1407.77 60.5732 1441 39.3992C1459.72 27.4643 1479.66 18.4481 1500.92 12.0743C1513.22 8.38642 1525.99 6.88735 1537.27 14.1253C1549.58 22.0312 1562.78 31.1523 1573.18 41.464C1584.43 52.6246 1592.68 66.0702 1599.96 80.0146C1604.8 89.2877 1610.89 97.8646 1615.83 107.082C1621.86 118.32 1622.94 129.954 1621.41 142.484C1620.49 150.079 1616.18 155.264 1611.91 161.358C1604.67 171.688 1596.56 180.842 1587.88 189.984C1577.05 201.398 1565.59 213.952 1551.33 221.141C1539.68 227.012 1525.84 229.166 1512.92 229.695C1501.48 230.163 1491.67 228.304 1482.41 221.242C1473.01 214.075 1464.15 206.474 1454.6 199.475C1442.91 190.9 1433.57 178.432 1427.49 165.376C1422.06 153.724 1423.19 143.924 1427.37 132.084C1430.16 124.161 1432.6 115.972 1438.56 109.809C1448.42 99.6124 1460.82 91.9089 1472.53 84.0623C1482.45 77.4156 1494.61 68.7332 1507.31 71.3389C1520.52 74.0507 1532.61 83.5053 1541.61 93.1745C1549.93 102.113 1557.76 116.105 1557.76 128.638C1557.76 139.637 1548.79 149.586 1540.1 155.139C1531.79 160.45 1516.78 167.879 1508.93 158.492C1504.95 153.73 1502.11 148.394 1499.78 142.706M1729.31 224.068C1734.43 223.161 1739.22 221.184 1744.45 220.566C1756.56 219.134 1769.17 219.314 1781.3 220.225C1803.81 221.917 1823.93 234.557 1837.32 252.328C1854.79 275.515 1873.32 303.284 1879.21 332.148C1886.59 368.333 1880.02 407.224 1851.06 431.862C1821.35 457.134 1780.73 478.443 1741.34 479.481C1719.15 480.067 1697.41 477.528 1675.91 472.039C1663.46 468.864 1651.74 463.572 1645.81 451.562C1639.32 438.443 1632.71 423.826 1629.11 409.633C1625.21 394.272 1625.06 378.493 1626 362.792C1626.63 352.35 1625.83 341.866 1626.34 331.418C1626.96 318.681 1632.02 308.15 1639.79 298.197C1644.49 292.164 1650.85 289.936 1657.65 286.912C1669.18 281.786 1680.85 278.121 1692.99 274.752C1708.15 270.545 1724.45 265.69 1740.37 266.872C1753.38 267.837 1766.36 273.122 1777.7 279.324C1787.75 284.814 1795.2 291.458 1799.5 302.283C1803.87 313.268 1807.55 324.346 1812.12 335.261C1817.73 348.633 1819.31 364.13 1817.8 378.454C1816.45 391.238 1810.44 399.057 1800.76 407.055C1794.29 412.407 1787.98 418.17 1779.69 420.383C1765.99 424.044 1751.39 424.26 1737.31 424.955C1725.39 425.544 1710.49 426.721 1700.95 417.951C1691.03 408.823 1685.53 394.489 1682.8 381.567C1680.27 369.621 1680.76 353.591 1687.22 342.849C1692.88 333.422 1705.7 329.515 1716 329.23C1725.86 328.956 1742.55 330.32 1744.45 342.411C1745.41 348.544 1745.09 354.577 1744.16 360.652M1784.62 554.408C1789.65 555.753 1794.83 555.985 1799.83 557.635C1811.41 561.454 1822.76 566.945 1833.37 572.898C1853.06 583.948 1865.95 603.904 1870.57 625.669C1876.6 654.067 1881.67 687.068 1874.81 715.716C1866.2 751.631 1843.81 784.098 1807.15 794.188C1769.55 804.538 1723.72 806.682 1687.59 790.979C1667.23 782.128 1648.6 770.642 1631.43 756.578C1621.49 748.441 1613.11 738.692 1612.81 725.299C1612.47 710.669 1612.65 694.626 1615.39 680.241C1618.35 664.672 1624.88 650.307 1632.37 636.475C1637.35 627.277 1641.06 617.439 1645.94 608.185C1651.88 596.903 1660.92 589.499 1672.16 583.759C1678.98 580.28 1685.68 580.948 1693.12 581.082C1705.74 581.307 1717.86 582.918 1730.29 584.997C1745.81 587.591 1762.63 590.078 1776.56 597.879C1787.94 604.25 1797.47 614.524 1805.13 624.942C1811.92 634.163 1815.86 643.332 1815.19 654.961C1814.5 666.762 1813.15 678.358 1812.69 690.184C1812.12 704.672 1807 719.387 1799.58 731.731C1792.96 742.747 1784.2 747.292 1772.05 750.451C1763.92 752.564 1755.77 755.12 1747.32 753.625C1733.36 751.152 1720.04 745.178 1706.98 739.858C1695.93 735.353 1681.93 730.123 1676.99 718.144C1671.85 705.676 1672.93 690.362 1675.91 677.496C1678.67 665.601 1685.89 651.279 1696.28 644.272C1705.4 638.123 1718.66 639.999 1728.12 644.095C1737.17 648.014 1751.73 656.304 1748.33 668.064C1746.61 674.029 1743.77 679.361 1740.36 684.473M540.26 502.292C539.269 507.405 539.399 512.583 538.102 517.687C535.1 529.503 530.414 541.21 525.216 552.208C515.567 572.623 496.558 586.873 475.169 593.005C447.262 601.005 414.696 608.36 385.639 603.513C349.213 597.436 315.263 577.36 302.64 541.492C289.693 504.702 284.358 459.139 297.502 422C304.91 401.065 315.069 381.687 327.9 363.573C335.325 353.092 344.464 344.049 357.804 342.812C372.374 341.461 388.391 340.522 402.931 342.247C418.668 344.115 433.453 349.626 447.774 356.133C457.297 360.46 467.37 363.475 476.941 367.694C488.61 372.838 496.627 381.339 503.137 392.153C507.082 398.708 506.883 405.444 507.269 412.876C507.924 425.474 507.163 437.685 505.957 450.228C504.451 465.889 503.144 482.842 496.334 497.286C490.772 509.081 481.188 519.303 471.331 527.675C462.605 535.087 453.734 539.659 442.086 539.797C430.266 539.937 418.605 539.403 406.775 539.762C392.283 540.203 377.248 536.129 364.417 529.586C352.965 523.746 347.82 515.329 343.822 503.429C341.146 495.465 338.028 487.509 338.93 478.983C340.423 464.877 345.453 451.17 349.849 437.778C353.573 426.434 357.813 412.104 369.419 406.343C381.497 400.347 396.849 400.351 409.891 402.431C421.949 404.354 436.74 410.553 444.454 420.431C451.224 429.099 450.278 442.464 446.852 452.187C443.575 461.488 436.319 476.584 424.352 474.022C418.281 472.722 412.765 470.261 407.428 467.213M557.954 336.242C558.586 331.072 558.095 325.916 559.033 320.733C561.204 308.737 565.062 296.732 569.48 285.397C577.681 264.359 595.65 248.818 616.559 241.209C643.84 231.282 675.814 221.673 705.138 224.482C741.9 228.003 777.167 245.662 792.261 280.562C807.743 316.359 816.243 361.438 805.722 399.404C799.792 420.804 791.01 440.844 779.473 459.809C772.798 470.782 764.311 480.441 751.091 482.605C736.65 484.969 720.738 487.024 706.113 486.317C690.283 485.552 675.15 481.085 660.411 475.593C650.609 471.94 640.35 469.636 630.508 466.095C618.508 461.778 609.918 453.856 602.67 443.522C598.277 437.259 598.005 430.525 597.102 423.139C595.57 410.617 595.478 398.383 595.806 385.786C596.216 370.058 596.337 353.055 602.123 338.172C606.848 326.017 615.696 315.151 624.945 306.112C633.133 298.11 641.663 292.93 653.273 291.979C665.055 291.015 676.724 290.735 688.5 289.551C702.926 288.1 718.209 291.116 731.466 296.748C743.297 301.774 749.016 309.812 753.834 321.405C757.059 329.163 760.725 336.882 760.42 345.45C759.914 359.626 755.852 373.65 752.401 387.315C749.478 398.892 746.248 413.483 735.073 420.04C723.442 426.863 708.127 427.93 694.971 426.765C682.809 425.688 667.622 420.536 659.237 411.22C651.879 403.045 651.89 389.647 654.63 379.709C657.25 370.202 663.435 354.636 675.552 356.358C681.699 357.231 687.374 359.301 692.91 361.969M660.636 552.987C665.765 552.08 670.551 550.103 675.782 549.485C687.889 548.053 700.497 548.233 712.627 549.144C735.144 550.837 755.259 563.476 768.648 581.248C786.118 604.435 804.655 632.203 810.543 661.067C817.924 697.253 811.348 736.143 782.387 760.781C752.681 786.053 712.057 807.362 672.675 808.401C650.476 808.986 628.745 806.447 607.236 800.959C594.791 797.783 583.073 792.491 577.138 780.481C570.655 767.362 564.039 752.745 560.439 738.552C556.542 723.191 556.389 707.413 557.332 691.711C557.959 681.269 557.163 670.785 557.672 660.338C558.292 647.6 563.355 637.069 571.119 627.116C575.824 621.083 582.184 618.855 588.983 615.831C600.51 610.706 612.182 607.04 624.324 603.671C639.484 599.464 655.78 594.609 671.704 595.791C684.709 596.756 697.687 602.041 709.035 608.243C719.081 613.734 726.529 620.377 730.832 631.202C735.199 642.187 738.878 653.265 743.453 664.18C749.059 677.552 750.643 693.049 749.133 707.373C747.785 720.158 741.771 727.977 732.094 735.974C725.618 741.326 719.308 747.089 711.025 749.302C697.321 752.964 682.723 753.179 668.646 753.874C656.721 754.463 641.822 755.641 632.285 746.87C622.36 737.742 616.862 723.409 614.129 710.486C611.603 698.54 612.09 682.51 618.547 671.768C624.214 662.341 637.03 658.435 647.334 658.149C657.192 657.876 673.885 659.239 675.782 671.331C676.744 677.464 676.423 683.496 675.49 689.571M859.453 578.125C855.52 574.709 850.972 572.233 847.199 568.558C838.468 560.05 830.672 550.138 823.747 540.137C810.892 521.573 808.055 497.986 813.44 476.397C820.465 448.228 830.379 416.346 849.105 393.606C872.581 365.097 906.942 345.733 944.315 352.736C982.649 359.918 1024.77 378.078 1050.37 408.031C1064.79 424.915 1076.49 443.401 1085.76 463.571C1091.13 475.241 1094.39 487.678 1088.79 499.849C1082.68 513.143 1075.48 527.484 1066.72 539.214C1057.23 551.909 1045.07 561.958 1032.27 571.107C1023.76 577.191 1016.11 584.407 1007.68 590.586C997.386 598.121 986.016 600.813 973.395 601.043C965.746 601.183 960.012 597.643 953.383 594.261C942.146 588.529 931.952 581.764 921.692 574.448C908.883 565.314 894.854 555.705 885.751 542.585C878.317 531.871 874.257 518.46 871.935 505.737C869.88 494.474 870.356 484.505 876.06 474.349C881.849 464.042 888.142 454.211 893.745 443.786C900.61 431.014 911.656 420.03 923.738 412.189C934.521 405.191 944.382 404.945 956.687 407.433C964.922 409.097 973.371 410.374 980.304 415.419C991.773 423.765 1001.13 434.974 1010.53 445.477C1018.49 454.374 1028.78 465.212 1027.97 478.143C1027.12 491.601 1019.44 504.894 1011.12 515.15C1003.42 524.631 990.659 534.341 978.248 536.083C967.356 537.612 956.255 530.11 949.548 522.282C943.132 514.793 933.686 500.961 941.889 491.878C946.05 487.271 950.94 483.723 956.248 480.625M1192.37 804.728C1187.24 803.826 1182.06 804.047 1176.94 802.839C1165.07 800.043 1153.28 795.562 1142.19 790.557C1121.62 781.265 1107.04 762.508 1100.53 741.229C1092.05 713.465 1084.12 681.031 1088.46 651.894C1093.9 615.366 1113.38 581.07 1149.03 567.824C1185.58 554.236 1231.04 548.106 1268.41 560.6C1289.47 567.643 1309.02 577.461 1327.35 589.975C1337.96 597.216 1347.16 606.196 1348.63 619.512C1350.24 634.057 1351.46 650.056 1349.99 664.624C1348.39 680.392 1343.14 695.271 1336.88 709.703C1332.72 719.301 1329.89 729.425 1325.84 739.068C1320.9 750.826 1312.54 758.989 1301.84 765.687C1295.35 769.747 1288.61 769.665 1281.19 770.181C1268.61 771.055 1256.38 770.508 1243.82 769.52C1228.14 768.288 1211.16 767.277 1196.6 760.72C1184.71 755.365 1174.33 745.96 1165.78 736.251C1158.22 727.655 1153.49 718.865 1153.15 707.222C1152.81 695.405 1153.14 683.737 1152.57 671.915C1151.88 657.432 1155.69 642.328 1162.01 629.384C1167.65 617.832 1175.97 612.541 1187.8 608.336C1195.72 605.521 1203.62 602.265 1212.16 603.018C1226.29 604.264 1240.08 609.055 1253.54 613.216C1264.95 616.742 1279.35 620.731 1285.32 632.235C1291.52 644.206 1291.79 659.556 1289.93 672.634C1288.22 684.723 1282.28 699.62 1272.54 707.506C1263.99 714.426 1250.61 713.714 1240.83 710.458C1231.47 707.343 1216.25 700.352 1218.61 688.341C1219.8 682.249 1222.17 676.69 1225.12 671.301M1305.83 437.862C1302.22 441.611 1299.51 446.023 1295.64 449.598C1286.69 457.873 1276.38 465.139 1266.03 471.531C1246.82 483.397 1223.12 484.996 1201.84 478.488C1174.08 469.998 1142.76 458.429 1121.03 438.538C1093.79 413.602 1076.25 378.274 1085.2 341.318C1094.38 303.411 1114.72 262.294 1145.97 238.305C1163.58 224.783 1182.66 214.064 1203.28 205.861C1215.22 201.115 1227.81 198.508 1239.67 204.736C1252.63 211.539 1266.57 219.475 1277.82 228.841C1290.01 238.979 1299.4 251.653 1307.87 264.91C1313.5 273.726 1320.31 281.74 1326.04 290.492C1333.02 301.161 1335.11 312.657 1334.68 325.273C1334.42 332.919 1330.59 338.46 1326.86 344.903C1320.55 355.825 1313.26 365.651 1305.42 375.514C1295.63 387.828 1285.3 401.335 1271.72 409.739C1260.63 416.602 1247.03 419.955 1234.2 421.608C1222.85 423.071 1212.92 422.074 1203.07 415.846C1193.08 409.526 1183.59 402.726 1173.48 396.585C1161.08 389.061 1150.69 377.455 1143.49 364.979C1137.07 353.845 1137.34 343.984 1140.47 331.825C1142.56 323.689 1144.28 315.318 1149.68 308.659C1158.61 297.641 1170.3 288.886 1181.28 280.049C1190.58 272.563 1201.94 262.854 1214.81 264.343C1228.21 265.894 1241.08 274.258 1250.88 283.106C1259.95 291.286 1268.98 304.541 1270.07 317.026C1271.02 327.984 1262.95 338.678 1254.78 344.966C1246.97 350.981 1232.66 359.69 1224.02 351.023C1219.64 346.626 1216.35 341.558 1213.54 336.095M217.836 565.559C222.393 568.082 227.357 569.558 231.811 572.369C242.12 578.876 251.806 586.95 260.659 595.293C277.093 610.778 284.772 633.26 283.993 655.497C282.978 684.511 279.909 717.757 266.32 743.894C249.284 776.661 219.7 802.746 181.688 803.667C142.698 804.612 97.7177 795.607 66.4584 771.629C48.8386 758.114 33.5482 742.464 20.2863 724.663C12.6131 714.363 6.83699 702.876 9.78271 689.807C13.0003 675.532 17.0565 660.009 23.1907 646.713C29.8298 632.323 39.6401 619.964 50.2538 608.355C57.312 600.635 63.2914 591.986 70.2614 584.187C78.7593 574.679 89.3216 569.681 101.618 566.832C109.072 565.105 115.416 567.375 122.603 569.305C134.787 572.575 146.165 577.072 157.721 582.096C172.15 588.367 187.869 594.849 199.501 605.79C209 614.724 215.76 626.998 220.676 638.96C225.028 649.549 226.636 659.399 223.168 670.52C219.648 681.805 215.536 692.73 212.223 704.092C208.164 718.012 199.643 731.053 189.455 741.234C180.363 750.321 170.768 752.613 158.214 752.738C149.813 752.822 141.284 753.329 133.454 749.836C120.5 744.057 109.019 735.038 97.6411 726.718C88.0031 719.672 75.6841 711.211 73.7917 698.392C71.8223 685.053 76.5698 670.453 82.5784 658.691C88.1333 647.817 98.5994 635.666 110.377 631.382C120.713 627.622 133.132 632.651 141.32 638.914C149.153 644.905 161.268 656.471 155.132 667.061C152.02 672.433 147.975 676.919 143.427 681.053M67.4468 259.194C71.1918 255.574 74.0549 251.258 78.0452 247.821C87.2817 239.864 97.8348 232.962 108.401 226.934C128.014 215.746 151.759 214.976 172.796 222.222C200.245 231.676 231.14 244.331 252.162 264.968C278.515 290.839 294.81 326.758 284.578 363.379C274.082 400.943 252.319 441.325 220.25 464.209C202.174 477.108 182.739 487.155 161.838 494.633C149.745 498.96 137.071 501.125 125.435 494.487C112.724 487.236 99.0654 478.819 88.1444 469.065C76.3243 458.509 67.3746 445.514 59.3759 431.969C54.0568 422.962 47.5346 414.715 42.1143 405.77C35.5057 394.863 33.8149 383.301 34.6853 370.708C35.2128 363.075 39.2391 357.672 43.1854 351.362C49.875 340.667 57.5023 331.101 65.6845 321.518C75.9008 309.553 86.6953 296.416 100.558 288.491C111.879 282.019 125.593 279.142 138.47 277.938C149.869 276.872 159.758 278.215 169.378 284.783C179.141 291.448 188.386 298.575 198.283 305.065C210.407 313.017 220.387 324.978 227.145 337.698C233.176 349.05 232.562 358.896 229.012 370.937C226.636 378.996 224.627 387.302 218.997 393.768C209.684 404.467 197.702 412.809 186.42 421.258C176.863 428.414 165.17 437.722 152.359 435.784C139.027 433.767 126.453 424.958 116.962 415.773C108.188 407.282 99.6278 393.72 98.974 381.204C98.4003 370.22 106.841 359.814 115.224 353.815C123.244 348.076 137.846 339.872 146.179 348.835C150.406 353.382 153.513 358.562 156.137 364.12M526.134 95.1444C528.581 99.7423 531.94 103.684 534.145 108.467C539.247 119.539 542.973 131.586 545.855 143.405C551.203 165.343 545.399 188.38 532.635 206.606C515.981 230.386 495.301 256.597 469.669 271.116C437.537 289.318 398.519 295.081 366.137 275.151C332.923 254.707 300.103 222.656 286.946 185.522C279.53 164.59 275.229 143.137 273.802 120.985C272.976 108.167 274.388 95.3876 283.977 86.0315C294.45 75.8119 306.306 65.0021 318.692 57.1923C332.097 48.7396 347.055 43.7183 362.279 39.7627C372.404 37.1322 382.129 33.1357 392.222 30.391C404.527 27.0446 416.107 28.6063 427.972 32.914C435.164 35.525 439.248 40.8848 444.225 46.4174C452.661 55.7958 459.754 65.7647 466.71 76.2714C475.396 89.3902 485.049 103.388 488.846 118.898C491.946 131.565 490.931 145.541 488.539 158.251C486.422 169.502 482.405 178.638 473.44 186.076C464.343 193.624 454.944 200.547 445.977 208.271C434.992 217.734 420.743 224.03 406.654 227.02C394.079 229.689 384.784 226.385 374.188 219.653C367.097 215.148 359.667 210.927 355.002 203.733C347.285 191.832 342.569 178.014 337.558 164.84C333.313 153.681 327.589 139.875 332.983 128.094C338.597 115.834 350.53 106.175 361.975 99.5835C372.556 93.4895 387.951 88.999 400.162 91.8204C410.879 94.2965 418.555 105.278 422.011 114.991C425.317 124.282 429.179 140.58 418.265 146.12C412.729 148.93 406.893 150.489 400.828 151.479M931.365 31.7036C936.494 30.7967 941.281 28.8199 946.511 28.2015C958.618 26.7699 971.227 26.9494 983.357 27.861C1005.87 29.553 1025.99 42.1926 1039.38 59.9639C1056.85 83.151 1075.38 110.919 1081.27 139.784C1088.65 175.969 1082.08 214.859 1053.12 239.498C1023.41 264.77 982.787 286.079 943.404 287.117C921.206 287.702 899.475 285.163 877.966 279.675C865.521 276.5 853.803 271.208 847.868 259.197C841.385 246.079 834.768 231.462 831.168 217.269C827.272 201.907 827.119 186.129 828.061 170.428C828.688 159.986 827.893 149.502 828.401 139.054C829.021 126.316 834.085 115.785 841.848 105.832C846.554 99.7995 852.913 97.5715 859.713 94.5477C871.239 89.4219 882.912 85.7564 895.054 82.3874C910.214 78.1809 926.509 73.3257 942.433 74.5076C955.438 75.4728 968.416 80.7574 979.765 86.9597C989.811 92.4501 997.258 99.0935 1001.56 109.918C1005.93 120.903 1009.61 131.982 1014.18 142.897C1019.79 156.269 1021.37 171.766 1019.86 186.09C1018.52 198.874 1012.5 206.693 1002.82 214.691C996.348 220.043 990.038 225.805 981.755 228.018C968.051 231.68 953.453 231.895 939.375 232.591C927.45 233.18 912.552 234.357 903.015 225.586C893.09 216.459 887.591 202.125 884.859 189.203C882.333 177.257 882.82 161.227 889.277 150.485C894.943 141.058 907.759 137.151 918.064 136.865C927.922 136.592 944.615 137.956 946.511 150.047C947.473 156.18 947.153 162.212 946.22 168.287" stroke="url(#paint0_linear_1228_72)" stroke-opacity="0.75" stroke-width="17" stroke-linecap="round"/>
</g>
<defs>
<filter id="filter0_i_1228_72" x="-1.50488" y="-1.5" width="1892" height="983" filterUnits="userSpaceOnUse" color-interpolation-filters="sRGB">
<feFlood flood-opacity="0" result="BackgroundImageFix"/>
<feBlend mode="normal" in="SourceGraphic" in2="BackgroundImageFix" result="shape"/>
<feColorMatrix in="SourceAlpha" type="matrix" values="0 0 0 0 0 0 0 0 0 0 0 0 0 0 0 0 0 0 127 0" result="hardAlpha"/>
<feOffset dx="-2" dy="-2"/>
<feGaussianBlur stdDeviation="2.5"/>
<feComposite in2="hardAlpha" operator="arithmetic" k2="-1" k3="1"/>
<feColorMatrix type="matrix" values="0 0 0 0 0 0 0 0 0 0 0 0 0 0 0 0 0 0 1 0"/>
<feBlend mode="normal" in2="shape" result="effect1_innerShadow_1228_72"/>
</filter>
<linearGradient id="paint0_linear_1228_72" x1="945.5" y1="973" x2="945.5" y2="9" gradientUnits="userSpaceOnUse">
<stop stop-color="white" stop-opacity="0.46"/>
<stop offset="1" stop-opacity="0"/>
</linearGradient>
</defs>
</svg>
